<?xml version="1.0" encoding="utf-8"?>
<!-- Generator: Adobe Illustrator 19.2.1, SVG Export Plug-In . SVG Version: 6.00 Build 0)  -->
<svg version="1.1" id="Layer_1" xmlns="http://www.w3.org/2000/svg" xmlns:xlink="http://www.w3.org/1999/xlink" x="0px" y="0px"
	 viewBox="0 0 605 100" style="enable-background:new 0 0 605 100;" xml:space="preserve">
<style type="text/css">
	.st0{fill:#4DC6DB;}
	.st1{fill:#FFFFFF;}
	.st2{fill:#F1592A;}
</style>
<g>
	<path class="st0" d="M1.4,74.5v-51H13v3.6H5.6v43.8H13v3.6C13,74.5,1.4,74.5,1.4,74.5z"/>
	<path class="st1" d="M45.8,66.8l16.9-41.2h0.7l17.3,41.2h-4.6L73.3,60H52.8l-2.7,6.8H45.8z M54.3,56.3h17.6l-7.2-18.1l-1.6-4.9
		c-0.6,2-1.1,3.6-1.6,4.9L54.3,56.3z"/>
	<path class="st1" d="M94.8,67.3c-2.6,0-4.8-0.5-6.6-1.6c-1.8-1.1-3.2-2.5-4-4.1l3.2-1.9c1.7,2.8,4.1,4.2,7.2,4.2c1.7,0,3-0.3,3.9-1
		s1.4-1.6,1.4-2.7c0-1.2-0.4-2.1-1.4-2.7c-0.9-0.5-2.6-1.2-5.1-1.9c-2.4-0.7-4.3-1.5-5.5-2.6c-1.3-1.1-2-2.6-2-4.8
		c0-2.1,0.8-3.7,2.3-4.9c1.5-1.2,3.5-1.8,5.9-1.8c3.6,0,6.4,1.3,8.3,4l-2.9,2.2c-1.4-1.9-3.2-2.8-5.4-2.8c-1.3,0-2.4,0.3-3.1,0.9
		c-0.8,0.6-1.2,1.3-1.2,2.3c0,1.1,0.4,1.9,1.2,2.5c0.8,0.5,2.4,1.1,4.7,1.8c2.6,0.7,4.6,1.6,6,2.7c1.5,1.1,2.2,2.8,2.2,4.9
		c0,2.2-0.8,4-2.3,5.3C100.1,66.6,97.8,67.3,94.8,67.3z"/>
	<path class="st1" d="M115.3,59.3v7.6h-4.2V23.5h4.2v27.8c0,1.2-0.1,2.4-0.3,3.5L126.8,42h4.9l-9.5,10.4l11,14.4h-5l-9-11.6
		L115.3,59.3z"/>
	<path class="st1" d="M172.8,67.3c-5.9,0-10.8-2-14.9-5.9c-4-3.9-6.1-8.9-6.1-15s2-11.1,6.1-15c4-3.9,9-5.9,14.9-5.9
		c7.3,0,12.7,2.6,16.2,7.9l-3.3,2.4c-2.9-4.3-7.2-6.4-12.9-6.4c-4.8,0-8.7,1.6-11.8,4.8s-4.6,7.3-4.6,12.1c0,4.9,1.5,8.9,4.6,12.1
		c3.1,3.2,7,4.8,11.8,4.8c5.8,0,10.3-2.3,13.4-6.8l3.4,2.3c-1.8,2.7-4.2,4.8-7.1,6.2C179.7,66.6,176.4,67.3,172.8,67.3z"/>
	<path class="st1" d="M206.7,67.3c-3.4,0-6.2-1.2-8.5-3.7s-3.4-5.6-3.4-9.2c0-3.7,1.1-6.8,3.4-9.2c2.3-2.5,5.1-3.7,8.5-3.7
		c4.4,0,7.5,2,9.5,5.9l-0.1-5.3h4.2v24.8h-4.2l0.1-5.3c-0.9,1.7-2.2,3.1-3.8,4.2C210.7,66.8,208.8,67.3,206.7,67.3z M207.6,63.7
		c2.6,0,4.7-0.9,6.3-2.6c1.6-1.7,2.4-3.9,2.4-6.6c0-2.7-0.8-4.9-2.4-6.6c-1.6-1.7-3.7-2.6-6.2-2.6c-2.6,0-4.6,0.9-6.1,2.6
		s-2.3,3.9-2.3,6.6c0,2.8,0.8,5,2.3,6.7C203,62.8,205,63.7,207.6,63.7z"/>
	<path class="st1" d="M229.2,66.8V42h4.2l-0.1,4.7c1.7-3.5,4.3-5.2,7.8-5.2c3.8,0,6.3,1.7,7.5,5.2c1.9-3.5,4.8-5.2,8.6-5.2
		c2.7,0,4.9,0.9,6.5,2.5c1.6,1.7,2.4,4,2.4,6.9v15.9H262V51.5c0-4.1-1.8-6.2-5.5-6.2c-2,0-3.7,0.7-4.9,2s-1.8,3.2-1.8,5.6v13.9h-4.2
		V51.5c0-4.1-1.8-6.2-5.4-6.2c-2,0-3.7,0.7-4.9,2s-1.8,3.2-1.8,5.6v13.9H229.2z"/>
	<path class="st1" d="M299.2,67.3c-3.4,0-6.2-1.2-8.5-3.7s-3.4-5.6-3.4-9.2c0-3.7,1.1-6.8,3.4-9.2c2.3-2.5,5.1-3.7,8.5-3.7
		c4.4,0,7.5,2,9.5,5.9l-0.1-5.3h4.2v24.8h-4.2l0.1-5.3c-0.9,1.7-2.2,3.1-3.8,4.2C303.2,66.8,301.3,67.3,299.2,67.3z M300.1,63.7
		c2.6,0,4.7-0.9,6.3-2.6c1.6-1.7,2.4-3.9,2.4-6.6c0-2.7-0.8-4.9-2.4-6.6s-3.7-2.6-6.2-2.6c-2.6,0-4.6,0.9-6.1,2.6s-2.3,3.9-2.3,6.6
		c0,2.8,0.8,5,2.3,6.7C295.5,62.8,297.5,63.7,300.1,63.7z"/>
	<path class="st1" d="M357.8,67.2v9.3h-4.1v-9.2c-5.4-0.5-9.9-2.6-13.5-6.5s-5.4-8.6-5.4-14.3c0-6.1,2-11.1,6.1-15
		c4-3.9,9-5.9,14.9-5.9s10.9,2,14.9,5.9s6.1,8.9,6.1,15c0,5.7-1.8,10.4-5.4,14.3C367.7,64.6,363.2,66.7,357.8,67.2z M353.7,63.5
		v-8.6h4.1v8.6c4.2-0.5,7.7-2.3,10.4-5.4c2.7-3.1,4-7,4-11.6c0-4.9-1.6-8.9-4.7-12.1s-7.1-4.8-11.8-4.8c-4.7,0-8.6,1.6-11.8,4.8
		c-3.1,3.2-4.7,7.3-4.7,12.1c0,4.6,1.3,8.5,4,11.6C345.9,61.2,349.4,63,353.7,63.5z"/>
	<path class="st1" d="M394.8,67.4c-3.4,0-6.1-1-8-3c-1.9-2-2.9-4.8-2.9-8.5V42h4.2v13.7c0,5.3,2.3,8,6.8,8c4.6,0,6.8-2.7,6.8-8V42
		h4.1v13.9c0,3.6-1,6.4-3,8.5C400.8,66.4,398.1,67.4,394.8,67.4z"/>
	<path class="st1" d="M417.1,55.8c0.3,2.4,1.2,4.4,2.8,5.8c1.6,1.4,3.7,2.2,6.4,2.2c3.3,0,5.9-1.1,7.9-3.3l2.6,2.5
		c-2.6,2.9-6,4.3-10.4,4.3c-4,0-7.2-1.2-9.7-3.7s-3.7-5.5-3.7-9.2c0-3.6,1.2-6.7,3.7-9.2s5.5-3.8,9.2-3.8c3.9,0,7,1.4,9.3,4
		c2.3,2.7,3.3,6.1,3.2,10.3h-21.3V55.8z M417.1,52.6H434c-0.2-2.2-1-4.1-2.4-5.5c-1.4-1.4-3.4-2.1-5.8-2.1c-2.3,0-4.3,0.7-5.8,2.1
		C418.4,48.4,417.4,50.3,417.1,52.6z"/>
	<path class="st1" d="M453.7,67.3c-2.6,0-4.8-0.5-6.6-1.6c-1.8-1.1-3.2-2.5-4-4.1l3.2-1.9c1.7,2.8,4.1,4.2,7.2,4.2
		c1.7,0,3-0.3,3.9-1s1.4-1.6,1.4-2.7c0-1.2-0.5-2.1-1.4-2.7c-0.9-0.5-2.6-1.2-5.1-1.9c-2.4-0.7-4.3-1.5-5.5-2.6
		c-1.3-1.1-2-2.6-2-4.8c0-2.1,0.8-3.7,2.3-4.9c1.5-1.2,3.5-1.8,5.8-1.8c3.6,0,6.4,1.3,8.3,4l-2.9,2.2c-1.4-1.9-3.2-2.8-5.4-2.8
		c-1.3,0-2.4,0.3-3.1,0.9c-0.8,0.6-1.2,1.3-1.2,2.3c0,1.1,0.4,1.9,1.2,2.5c0.8,0.5,2.4,1.1,4.7,1.8c2.6,0.7,4.6,1.6,6,2.7
		s2.2,2.8,2.2,4.9c0,2.2-0.8,4-2.3,5.3C459,66.6,456.7,67.3,453.7,67.3z"/>
	<path class="st1" d="M477.5,67.4c-2,0-3.7-0.6-4.9-1.9c-1.2-1.3-1.8-3.3-1.8-6.1V45.5H467V42h3.8V29h4.1v13h7v3.5h-7v13.9
		c0,2.9,1,4.3,2.9,4.3c1.2,0,2.3-0.5,3.4-1.4l2.3,2.6C482,66.6,480,67.4,477.5,67.4z"/>
	<path class="st1" d="M493.9,34c-0.6,0.6-1.3,0.8-2.1,0.8c-0.8,0-1.5-0.3-2.1-0.8c-0.6-0.6-0.9-1.3-0.9-2.1c0-0.8,0.3-1.5,0.9-2.1
		s1.3-0.9,2.1-0.9c0.8,0,1.5,0.3,2.1,0.9s0.9,1.3,0.9,2.1C494.8,32.7,494.5,33.4,493.9,34z M489.7,66.8V42h4.2v24.8H489.7z"/>
	<path class="st1" d="M514.5,67.3c-3.7,0-6.9-1.2-9.4-3.7s-3.8-5.5-3.8-9.2c0-3.6,1.3-6.7,3.8-9.2s5.7-3.8,9.4-3.8
		c3.7,0,6.8,1.3,9.3,3.8s3.8,5.6,3.8,9.2s-1.3,6.7-3.8,9.2S518.2,67.3,514.5,67.3z M514.5,63.7c2.6,0,4.7-0.9,6.4-2.6
		c1.6-1.8,2.5-4,2.5-6.7s-0.8-4.9-2.5-6.7c-1.6-1.8-3.8-2.6-6.4-2.6c-2.6,0-4.8,0.9-6.5,2.6c-1.7,1.8-2.5,4-2.5,6.7s0.8,4.9,2.5,6.7
		C509.7,62.8,511.9,63.7,514.5,63.7z"/>
	<path class="st1" d="M534.9,66.8V42h4.2l-0.1,5.1c0.8-1.8,2-3.1,3.6-4.1s3.4-1.5,5.4-1.5c2.8,0,5,0.9,6.8,2.7
		c1.7,1.8,2.5,4.3,2.5,7.5v15.1H553V52.2c0-4.6-2.1-6.9-6.2-6.9c-2.3,0-4.2,0.7-5.6,2.1c-1.4,1.4-2.1,3.3-2.1,5.8v13.7L534.9,66.8
		L534.9,66.8z"/>
	<path class="st2" d="M592,74.5v-3.6h7.4V27.1H592v-3.6h11.6v51H592z"/>
</g>
</svg>
