<?xml version="1.0" encoding="utf-8"?>
<!-- Generator: Adobe Illustrator 19.2.1, SVG Export Plug-In . SVG Version: 6.00 Build 0)  -->
<svg version="1.1" id="Layer_1" xmlns="http://www.w3.org/2000/svg" xmlns:xlink="http://www.w3.org/1999/xlink" x="0px" y="0px"
	 viewBox="0 0 605 54" style="enable-background:new 0 0 605 54;" xml:space="preserve">
<style type="text/css">
	.st0{fill:#4DC6DB;}
	.st1{fill:#FFFFFF;}
	.st2{fill:#F1592A;}
</style>
<g>
	<path class="st0" d="M1.4,53.2v-51H13v3.6H5.6v43.8H13v3.6H1.4z"/>
	<path class="st1" d="M45.8,45.5L62.7,4.3h0.7l17.3,41.2h-4.6l-2.8-6.8H52.8l-2.7,6.8H45.8z M54.3,35h17.6l-7.2-18.1L63.1,12
		c-0.6,2-1.1,3.6-1.6,4.9L54.3,35z"/>
	<path class="st1" d="M94.8,46c-2.6,0-4.8-0.5-6.6-1.6c-1.8-1.1-3.2-2.5-4-4.1l3.2-1.9c1.7,2.8,4.1,4.2,7.2,4.2c1.7,0,3-0.3,3.9-1
		c0.9-0.7,1.4-1.6,1.4-2.7c0-1.2-0.4-2.1-1.4-2.7c-0.9-0.5-2.6-1.2-5.1-1.9c-2.4-0.7-4.3-1.5-5.5-2.6c-1.3-1.1-2-2.6-2-4.8
		c0-2.1,0.8-3.7,2.3-4.9c1.5-1.2,3.5-1.8,5.9-1.8c3.6,0,6.4,1.3,8.3,4l-2.9,2.2c-1.4-1.9-3.2-2.8-5.4-2.8c-1.3,0-2.4,0.3-3.1,0.9
		c-0.8,0.6-1.2,1.3-1.2,2.3c0,1.1,0.4,1.9,1.2,2.5c0.8,0.5,2.4,1.1,4.7,1.8c2.6,0.7,4.6,1.6,6,2.7c1.5,1.1,2.2,2.8,2.2,4.9
		c0,2.2-0.8,4-2.3,5.3C100.1,45.3,97.8,46,94.8,46z"/>
	<path class="st1" d="M115.3,38v7.6h-4.2V2.2h4.2V30c0,1.2-0.1,2.4-0.3,3.5l11.8-12.8h4.9l-9.5,10.4l11,14.4h-5l-9-11.6L115.3,38z"
		/>
	<path class="st1" d="M172.8,46c-5.9,0-10.8-2-14.9-5.9c-4-3.9-6.1-8.9-6.1-15c0-6.1,2-11.1,6.1-15c4-3.9,9-5.9,14.9-5.9
		c7.3,0,12.7,2.6,16.2,7.9l-3.3,2.4c-2.9-4.3-7.2-6.4-12.9-6.4c-4.8,0-8.7,1.6-11.8,4.8c-3.1,3.2-4.6,7.3-4.6,12.1
		c0,4.9,1.5,8.9,4.6,12.1c3.1,3.2,7,4.8,11.8,4.8c5.8,0,10.3-2.3,13.4-6.8l3.4,2.3c-1.8,2.7-4.2,4.8-7.1,6.2
		C179.7,45.3,176.4,46,172.8,46z"/>
	<path class="st1" d="M206.7,46c-3.4,0-6.2-1.2-8.5-3.7c-2.3-2.5-3.4-5.6-3.4-9.2c0-3.7,1.1-6.8,3.4-9.2c2.3-2.5,5.1-3.7,8.5-3.7
		c4.4,0,7.5,2,9.5,5.9l-0.1-5.3h4.2v24.8h-4.2l0.1-5.3c-0.9,1.7-2.2,3.1-3.8,4.2C210.7,45.5,208.8,46,206.7,46z M207.6,42.4
		c2.6,0,4.7-0.9,6.3-2.6c1.6-1.7,2.4-3.9,2.4-6.6c0-2.7-0.8-4.9-2.4-6.6c-1.6-1.7-3.7-2.6-6.2-2.6c-2.6,0-4.6,0.9-6.1,2.6
		c-1.5,1.7-2.3,3.9-2.3,6.6c0,2.8,0.8,5,2.3,6.7C203,41.5,205,42.4,207.6,42.4z"/>
	<path class="st1" d="M229.2,45.5V20.7h4.2l-0.1,4.7c1.7-3.5,4.3-5.2,7.8-5.2c3.8,0,6.3,1.7,7.5,5.2c1.9-3.5,4.8-5.2,8.6-5.2
		c2.7,0,4.9,0.9,6.5,2.5c1.6,1.7,2.4,4,2.4,6.9v15.9h-4.1V30.2c0-4.1-1.8-6.2-5.5-6.2c-2,0-3.7,0.7-4.9,2c-1.2,1.3-1.8,3.2-1.8,5.6
		v13.9h-4.2V30.2c0-4.1-1.8-6.2-5.4-6.2c-2,0-3.7,0.7-4.9,2c-1.2,1.3-1.8,3.2-1.8,5.6v13.9H229.2z"/>
	<path class="st1" d="M299.2,46c-3.4,0-6.2-1.2-8.5-3.7c-2.3-2.5-3.4-5.6-3.4-9.2c0-3.7,1.1-6.8,3.4-9.2c2.3-2.5,5.1-3.7,8.5-3.7
		c4.4,0,7.5,2,9.5,5.9l-0.1-5.3h4.2v24.8h-4.2l0.1-5.3c-0.9,1.7-2.2,3.1-3.8,4.2C303.2,45.5,301.3,46,299.2,46z M300.1,42.4
		c2.6,0,4.7-0.9,6.3-2.6c1.6-1.7,2.4-3.9,2.4-6.6c0-2.7-0.8-4.9-2.4-6.6c-1.6-1.7-3.7-2.6-6.2-2.6c-2.6,0-4.6,0.9-6.1,2.6
		c-1.5,1.7-2.3,3.9-2.3,6.6c0,2.8,0.8,5,2.3,6.7C295.5,41.5,297.5,42.4,300.1,42.4z"/>
	<path class="st1" d="M357.8,45.9v9.3h-4.1V46c-5.4-0.5-9.9-2.6-13.5-6.5c-3.6-3.9-5.4-8.6-5.4-14.3c0-6.1,2-11.1,6.1-15
		c4-3.9,9-5.9,14.9-5.9c5.9,0,10.9,2,14.9,5.9c4,3.9,6.1,8.9,6.1,15c0,5.7-1.8,10.4-5.4,14.3C367.7,43.3,363.2,45.4,357.8,45.9z
		 M353.7,42.2v-8.6h4.1v8.6c4.2-0.5,7.7-2.3,10.4-5.4c2.7-3.1,4-7,4-11.6c0-4.9-1.6-8.9-4.7-12.1c-3.1-3.2-7.1-4.8-11.8-4.8
		c-4.7,0-8.6,1.6-11.8,4.8c-3.1,3.2-4.7,7.3-4.7,12.1c0,4.6,1.3,8.5,4,11.6C345.9,39.9,349.4,41.7,353.7,42.2z"/>
	<path class="st1" d="M394.8,46.1c-3.4,0-6.1-1-8-3c-1.9-2-2.9-4.8-2.9-8.5V20.7h4.2v13.7c0,5.3,2.3,8,6.8,8c4.6,0,6.8-2.7,6.8-8
		V20.7h4.1v13.9c0,3.6-1,6.4-3,8.5C400.8,45.1,398.1,46.1,394.8,46.1z"/>
	<path class="st1" d="M417.1,34.5c0.3,2.4,1.2,4.4,2.8,5.8c1.6,1.4,3.7,2.2,6.4,2.2c3.3,0,5.9-1.1,7.9-3.3l2.6,2.5
		c-2.6,2.9-6,4.3-10.4,4.3c-4,0-7.2-1.2-9.7-3.7c-2.5-2.5-3.7-5.5-3.7-9.2c0-3.6,1.2-6.7,3.7-9.2c2.5-2.5,5.5-3.8,9.2-3.8
		c3.9,0,7,1.4,9.3,4c2.3,2.7,3.3,6.1,3.2,10.3H417.1z M417.1,31.3H434c-0.2-2.2-1-4.1-2.4-5.5c-1.4-1.4-3.4-2.1-5.8-2.1
		c-2.3,0-4.3,0.7-5.8,2.1C418.4,27.1,417.4,29,417.1,31.3z"/>
	<path class="st1" d="M453.7,46c-2.6,0-4.8-0.5-6.6-1.6c-1.8-1.1-3.2-2.5-4-4.1l3.2-1.9c1.7,2.8,4.1,4.2,7.2,4.2c1.7,0,3-0.3,3.9-1
		c0.9-0.7,1.4-1.6,1.4-2.7c0-1.2-0.5-2.1-1.4-2.7c-0.9-0.5-2.6-1.2-5.1-1.9c-2.4-0.7-4.3-1.5-5.5-2.6c-1.3-1.1-2-2.6-2-4.8
		c0-2.1,0.8-3.7,2.3-4.9c1.5-1.2,3.5-1.8,5.8-1.8c3.6,0,6.4,1.3,8.3,4l-2.9,2.2c-1.4-1.9-3.2-2.8-5.4-2.8c-1.3,0-2.4,0.3-3.1,0.9
		c-0.8,0.6-1.2,1.3-1.2,2.3c0,1.1,0.4,1.9,1.2,2.5c0.8,0.5,2.4,1.1,4.7,1.8c2.6,0.7,4.6,1.6,6,2.7s2.2,2.8,2.2,4.9
		c0,2.2-0.8,4-2.3,5.3C459,45.3,456.7,46,453.7,46z"/>
	<path class="st1" d="M477.5,46.1c-2,0-3.7-0.6-4.9-1.9c-1.2-1.3-1.8-3.3-1.8-6.1V24.2H467v-3.5h3.8v-13h4.1v13h7v3.5h-7v13.9
		c0,2.9,1,4.3,2.9,4.3c1.2,0,2.3-0.5,3.4-1.4l2.3,2.6C482,45.3,480,46.1,477.5,46.1z"/>
	<path class="st1" d="M493.9,12.7c-0.6,0.6-1.3,0.8-2.1,0.8c-0.8,0-1.5-0.3-2.1-0.8c-0.6-0.6-0.9-1.3-0.9-2.1s0.3-1.5,0.9-2.1
		c0.6-0.6,1.3-0.9,2.1-0.9c0.8,0,1.5,0.3,2.1,0.9c0.6,0.6,0.9,1.3,0.9,2.1S494.5,12.1,493.9,12.7z M489.7,45.5V20.7h4.2v24.8H489.7z
		"/>
	<path class="st1" d="M514.5,46c-3.7,0-6.9-1.2-9.4-3.7c-2.5-2.5-3.8-5.5-3.8-9.2c0-3.6,1.3-6.7,3.8-9.2c2.5-2.5,5.7-3.8,9.4-3.8
		c3.7,0,6.8,1.3,9.3,3.8c2.5,2.5,3.8,5.6,3.8,9.2c0,3.6-1.3,6.7-3.8,9.2C521.3,44.8,518.2,46,514.5,46z M514.5,42.4
		c2.6,0,4.7-0.9,6.4-2.6c1.6-1.8,2.5-4,2.5-6.7c0-2.7-0.8-4.9-2.5-6.7c-1.6-1.8-3.8-2.6-6.4-2.6c-2.6,0-4.8,0.9-6.5,2.6
		c-1.7,1.8-2.5,4-2.5,6.7c0,2.7,0.8,4.9,2.5,6.7C509.7,41.5,511.9,42.4,514.5,42.4z"/>
	<path class="st1" d="M534.9,45.5V20.7h4.2l-0.1,5.1c0.8-1.8,2-3.1,3.6-4.1c1.6-1,3.4-1.5,5.4-1.5c2.8,0,5,0.9,6.8,2.7
		c1.7,1.8,2.5,4.3,2.5,7.5v15.1H553V30.9c0-4.6-2.1-6.9-6.2-6.9c-2.3,0-4.2,0.7-5.6,2.1c-1.4,1.4-2.1,3.3-2.1,5.8v13.7H534.9z"/>
	<path class="st2" d="M592,53.2v-3.6h7.4V5.8H592V2.2h11.6v51H592z"/>
</g>
</svg>
