<?xml version="1.0" encoding="utf-8"?>
<!-- Generator: Adobe Illustrator 19.2.1, SVG Export Plug-In . SVG Version: 6.00 Build 0)  -->
<svg version="1.1" id="Layer_1" xmlns="http://www.w3.org/2000/svg" xmlns:xlink="http://www.w3.org/1999/xlink" x="0px" y="0px"
	 viewBox="0 0 30 20" style="enable-background:new 0 0 30 20;" xml:space="preserve">
<style type="text/css">
	.st0{fill:#F15A29;}
</style>
<g>
	<path class="st0" d="M4.1,9.2c0.2-0.5,0.6-0.7,1.1-0.7c4.4,0,8.9,0,13.3,0h0.3c0.5-1.5,1.3-2.1,2.4-2.1c1,0,2.1,0.7,2.3,2.1
		c0.4,0,0.8,0,1.2,0c0.5,0,0.9,0.2,1.1,0.7v0.4c-0.1,0.3-0.3,0.5-0.6,0.6c-0.1,0-0.1,0.1-0.1,0.2c-0.4,1.5-0.8,2.9-1.2,4.4
		c-0.2,0.7-0.5,1.3-1.1,1.7c-0.1,0.1-0.1,0.1-0.1,0.2c0.1,0.4,0.3,0.7,0.4,1.1c0.2,0.6-0.1,1.1-0.6,1.3c-0.5,0.2-1.1,0-1.3-0.6
		c-0.1-0.3-0.3-0.7-0.4-1c-0.1-0.2-0.2-0.4-0.4-0.3c-0.1,0-0.2,0-0.3,0c-1.1,0-2.1,0-3.2,0c-2.8,0-5.6,0.1-8.4-0.1
		c-0.2,0.4-0.3,0.8-0.5,1.3c-0.2,0.6-0.8,0.8-1.3,0.6C6.3,19,6,18.4,6.2,17.8c0.2-0.5,0.4-0.9,0.5-1.4c0-0.1,0-0.2-0.1-0.3
		c-0.3-0.3-0.5-0.7-0.6-1.1c-0.3-1.1-0.6-2.2-0.9-3.3C5.2,11.5,5.1,11.3,5,11h1.7c1.1,0,2.2,0,3.4,0c0.3,0,0.5-0.3,0.4-0.5
		c-0.1-0.2-0.3-0.3-0.5-0.3c-1.6,0-3.2,0-4.8,0c-0.5,0-0.9-0.2-1.1-0.7V9.2z"/>
	<path class="st0" d="M22.6,0.7c1.3,0,2.4,1.1,2.4,2.4c0,1.4-1.1,2.4-2.4,2.5c-1.3,0-2.4-1.1-2.4-2.4C20.2,1.8,21.3,0.7,22.6,0.7"/>
</g>
</svg>
