<?xml version="1.0" encoding="utf-8"?>
<!-- Generator: Adobe Illustrator 19.2.1, SVG Export Plug-In . SVG Version: 6.00 Build 0)  -->
<svg version="1.1" id="Layer_1" xmlns="http://www.w3.org/2000/svg" xmlns:xlink="http://www.w3.org/1999/xlink" x="0px" y="0px"
	 viewBox="0 0 30 20" style="enable-background:new 0 0 30 20;" xml:space="preserve">
<style type="text/css">
	.st0{fill:#F15A29;}
</style>
<g>
	<path class="st0" d="M28.1,19.3h-2.7v-3.9H4.6v3.9H1.9v-0.1c0-5,0-10,0-14.9c0-0.4,0.1-0.8,0.4-1c0.4-0.4,0.9-0.5,1.4-0.4
		C4.2,3,4.5,3.4,4.6,3.9c0,0.1,0,0.2,0,0.3c0,2.6,0,5.2,0,7.8v0.1h20.8v-0.1c0-1.5,0-3,0-4.5c0-0.3,0.1-0.7,0.3-1
		C26,6.2,26.4,6,27,6.1c0.6,0.1,0.9,0.5,1.1,1c0,0.2,0.1,0.3,0.1,0.5c0,3.8,0,7.7,0,11.5V19.3z"/>
	<path class="st0" d="M12.8,6.2h0.1c3.2,0,6.5,0,9.7,0c0.6,0,1.1,0.1,1.5,0.5C24.5,7,24.7,7.5,24.8,8c0,0.1,0,0.3,0,0.4
		c0,1.1,0,2.1,0,3.2v0.1h-12V6.2z"/>
	<path class="st0" d="M10.1,9.5V9.4c0-0.7,0-1.3,0-2c0-0.4,0.1-0.8,0.5-1c0.7-0.5,1.7-0.1,1.8,0.7c0,0.1,0,0.3,0,0.4c0,1,0,2,0,3
		c0,0.2,0,0.4-0.1,0.6c-0.2,0.4-0.5,0.6-1,0.6c-1.7,0-3.3,0-5,0c-0.3,0-0.6-0.1-0.9-0.3C4.8,11,4.9,10.1,5.5,9.7
		C5.8,9.6,6,9.5,6.3,9.5c1.2,0,2.4,0,3.7,0H10.1z"/>
	<path class="st0" d="M7.5,9.3c-1.1,0-2.2-0.8-2.4-1.9C4.8,6.2,5.5,5,6.7,4.6C8,4.1,9.5,4.9,9.9,6.3c0.3,1.3-0.5,2.6-1.8,2.9
		C7.9,9.2,7.7,9.2,7.5,9.3"/>
</g>
</svg>
