<?xml version="1.0" encoding="utf-8"?>
<!-- Generator: Adobe Illustrator 19.2.1, SVG Export Plug-In . SVG Version: 6.00 Build 0)  -->
<svg version="1.1" id="Layer_1" xmlns="http://www.w3.org/2000/svg" xmlns:xlink="http://www.w3.org/1999/xlink" x="0px" y="0px"
	 viewBox="0 0 30 20" style="enable-background:new 0 0 30 20;" xml:space="preserve">
<style type="text/css">
	.st0{fill:#F15A29;}
</style>
<g>
	<path class="st0" d="M8.5,14.3c0.6,0,1.1,0,1.6-0.1c0.5-0.1,0.7-0.6,0.3-0.9c-0.1-0.1-0.2-0.1-0.3-0.2c-0.7-0.3-1.4-0.5-2.2-0.8
		c-0.4-0.1-0.8-0.2-1.3-0.2c-0.4,0-0.5,0.2-0.6,0.5c0,0.2,0,0.4,0,0.6c0,0.5,0.2,0.7,0.8,0.8C7.4,14.3,7.9,14.3,8.5,14.3 M21.4,14.3
		L21.4,14.3c0.1,0,0.3,0,0.4,0c0.6,0,1.2,0,1.7-0.2c0.3-0.1,0.5-0.3,0.5-0.6c0-0.3,0-0.5,0-0.8c0-0.3-0.2-0.5-0.6-0.5
		c-0.3,0-0.6,0-0.9,0.1c-0.3,0.1-0.7,0.2-1,0.3c-0.5,0.2-1,0.4-1.5,0.6c-0.2,0.1-0.5,0.2-0.5,0.5c-0.1,0.4,0.2,0.6,0.7,0.6
		C20.6,14.3,21,14.3,21.4,14.3 M22.3,9.9c0-0.1,0-0.2-0.1-0.2c-0.4-1.1-0.9-2.2-1.3-3.3c-0.1-0.2-0.2-0.3-0.4-0.4
		c-0.2-0.1-0.4-0.1-0.6-0.2c-1-0.2-2.1-0.3-3.2-0.3c-1.2,0-2.4,0-3.6,0c-1.1,0-2.1,0.1-3.2,0.3C9.5,5.9,9.1,6.1,8.9,6.6
		c-0.3,0.7-0.6,1.3-0.8,2C7.9,9,7.8,9.4,7.6,9.9C12.6,10.8,17.4,10.8,22.3,9.9 M5.1,11.5c-0.3,0-0.6,0-0.8,0c-0.5,0-0.7-0.2-0.5-0.6
		c0.1-0.2,0.2-0.4,0.3-0.6c0.2-0.4,0.5-0.6,1-0.6c0,0,0.1,0,0.1,0c0.3,0,0.6,0.1,0.8,0C6.1,9.5,6.1,9.2,6.2,9c0.5-1,0.9-2.1,1.4-3.1
		C7.8,5.4,8.2,5,8.8,4.8c1-0.4,2-0.6,3.1-0.7c1.8-0.1,3.7-0.1,5.5,0c1.3,0.1,2.5,0.2,3.7,0.6c0.6,0.2,1.1,0.6,1.3,1.2
		c0.5,1.2,1,2.3,1.6,3.5c0.1,0.2,0.2,0.2,0.4,0.2c0.4,0,0.8-0.1,1.2,0.1c0.2,0.1,0.4,0.2,0.5,0.4c0.1,0.2,0.2,0.5,0.3,0.7
		c0.1,0.3-0.1,0.6-0.5,0.6c-0.1,0-0.3,0-0.4,0c-0.1,0-0.3,0-0.4,0c0.1,0.3,0.2,0.5,0.2,0.8c0,0.2,0,0.3,0,0.5c0,1.8,0,3.6,0,5.4
		c0,0.6-0.3,0.8-1,0.8c-0.9,0-1.8,0-2.6,0c-0.6,0-0.9-0.2-0.9-0.7c0-0.3,0-0.6,0-0.9c0-0.2-0.1-0.2-0.3-0.2c-0.6,0-1.2,0-1.9,0
		c-3,0-5.9,0-8.9,0c-0.3,0-0.4,0.1-0.3,0.3c0,0.3,0,0.6,0,0.9c0,0.4-0.3,0.7-0.8,0.7c-0.9,0-1.9,0-2.8,0c-0.5,0-0.8-0.3-0.8-0.7
		c0-1.9,0-3.7,0-5.6C4.8,12.3,5,12,5,11.8C5.1,11.7,5.1,11.6,5.1,11.5"/>
</g>
</svg>
