<?xml version="1.0" encoding="utf-8"?>
<!-- Generator: Adobe Illustrator 19.2.1, SVG Export Plug-In . SVG Version: 6.00 Build 0)  -->
<svg version="1.1" id="Layer_1" xmlns="http://www.w3.org/2000/svg" xmlns:xlink="http://www.w3.org/1999/xlink" x="0px" y="0px"
	 viewBox="0 0 28 28" style="enable-background:new 0 0 28 28;" xml:space="preserve">
<style type="text/css">
	.st0{fill:#727686;}
</style>
<g>
	<g>
		<path class="st0" d="M14,27.4c-7.4,0-13.4-6-13.4-13.4c0-7.4,6-13.4,13.4-13.4c7.4,0,13.4,6,13.4,13.4
			C27.4,21.4,21.4,27.4,14,27.4z M14,1.6C7.1,1.6,1.6,7.1,1.6,14c0,6.9,5.6,12.4,12.4,12.4c6.9,0,12.4-5.6,12.4-12.4
			C26.4,7.1,20.9,1.6,14,1.6z"/>
	</g>
	<g>
		<g>
			<rect x="13.5" y="7.1" class="st0" width="1" height="13.8"/>
		</g>
		<g>
			<rect x="7.1" y="13.5" class="st0" width="13.8" height="1"/>
		</g>
	</g>
</g>
</svg>
