<?xml version="1.0" encoding="utf-8"?>
<!-- Generator: Adobe Illustrator 19.2.1, SVG Export Plug-In . SVG Version: 6.00 Build 0)  -->
<svg version="1.1" id="Layer_1" xmlns="http://www.w3.org/2000/svg" xmlns:xlink="http://www.w3.org/1999/xlink" x="0px" y="0px"
	 viewBox="0 0 400 100" style="enable-background:new 0 0 400 100;" xml:space="preserve">
<style type="text/css">
	.st0{fill:#50C6DB;stroke:#50C6DB;stroke-width:1.8;stroke-miterlimit:10;}
	.st1{fill:#F15A29;stroke:#F15A29;stroke-width:1.8;stroke-miterlimit:10;}
	.st2{fill:#FFFFFF;}
</style>
<g>
	<polygon class="st0" points="3.5,27.3 3.5,72.1 13.6,72.1 13.6,69 7.2,69 7.2,30.4 13.6,30.4 13.6,27.3 	"/>
	<polygon class="st1" points="386.3,27.3 386.3,30.4 392.8,30.4 392.8,69 386.3,69 386.3,72.1 396.5,72.1 396.5,27.3 	"/>
	<g>
		<g>
			<path class="st2" d="M35.2,49.4C35.2,39.2,43,32,52.6,32c6,0,10.6,2.2,13.5,6.6l-2.7,2c-2.2-3.2-5.8-5.3-10.7-5.3
				c-7.9,0-13.7,6-13.7,14.1c0,8.1,5.7,14.1,13.7,14.1c4.9,0,8.7-2.1,11.2-5.7l2.8,1.9c-3,4.4-7.9,7-14,7
				C43,66.8,35.2,59.7,35.2,49.4"/>
			<path class="st2" d="M98.3,55.7l-5.2-13c-0.6-1.6-1.3-3.9-1.3-4c0,0.1-0.7,2.5-1.4,4l-5.2,13H98.3z M91.5,32.1h0.6l14.4,34.3
				h-3.8l-3.1-7.6H84l-3,7.6h-3.5L91.5,32.1z"/>
			<path class="st2" d="M120.4,32h0.5l15.8,19.7L152.4,32h0.6v34.4h-3.5V44c0-1.5,0.1-3.7,0.1-3.8c-0.1,0.1-1.3,2.2-2.4,3.5
				l-10.3,13h-0.6l-10.1-13c-1.1-1.2-2.3-3.3-2.4-3.5c0,0,0.2,2.3,0.2,3.8v22.4h-3.5V32z"/>
			<path class="st2" d="M207.2,55.7l-5.2-13c-0.6-1.6-1.3-3.9-1.3-4c0,0.1-0.7,2.5-1.4,4l-5.2,13H207.2z M200.4,32.1h0.6l14.4,34.3
				h-3.8l-3.1-7.6h-15.6l-3,7.6h-3.5L200.4,32.1z"/>
		</g>
		<rect x="229.5" y="32.4" class="st2" width="3.7" height="34"/>
		<g>
			<path class="st2" d="M260.1,50c5.5,0,8.5-2.3,8.5-7.1c0-4.9-3-7.2-8.5-7.2h-6.4V50H260.1z M250.1,32.4h10.2
				c7.1,0,12.1,3.4,12.1,10.4c0,5-2.7,8.2-7.1,9.6l8.3,14h-4.2L261.5,53c-0.5,0.1-1.1,0.1-1.6,0.1h-6.2v13.3h-3.6V32.4z"/>
		</g>
		<polygon class="st2" points="287.9,32.4 291.5,32.4 291.5,63.2 307.5,63.2 307.5,66.4 287.9,66.4 		"/>
		<rect x="321.9" y="32.4" class="st2" width="3.6" height="34"/>
		<polygon class="st2" points="342.5,32.4 363.2,32.4 363.2,35.6 346.1,35.6 346.1,47.8 361.3,47.8 361.3,50.9 346.1,50.9 
			346.1,63.2 363.9,63.2 363.9,66.4 342.5,66.4 		"/>
	</g>
</g>
</svg>
